<svg width="13" height="18" viewBox="0 0 13 18" fill="none" xmlns="http://www.w3.org/2000/svg">
<g clip-path="url(#clip0_1_1707)">
<path d="M7 0H6C5.44772 0 5 0.447715 5 1V2C5 2.55228 5.44772 3 6 3H7C7.55228 3 8 2.55228 8 2V1C8 0.447715 7.55228 0 7 0Z" fill="#F9365F"/>
<path d="M2 0H1C0.447715 0 0 0.447715 0 1V2C0 2.55228 0.447715 3 1 3H2C2.55228 3 3 2.55228 3 2V1C3 0.447715 2.55228 0 2 0Z" fill="#F9365F"/>
<path d="M12 0H11C10.4477 0 10 0.447715 10 1V2C10 2.55228 10.4477 3 11 3H12C12.5523 3 13 2.55228 13 2V1C13 0.447715 12.5523 0 12 0Z" fill="#F9365F"/>
<path d="M7 5H6C5.44772 5 5 5.44772 5 6V7C5 7.55228 5.44772 8 6 8H7C7.55228 8 8 7.55228 8 7V6C8 5.44772 7.55228 5 7 5Z" fill="#F9365F"/>
<path d="M2 5H1C0.447715 5 0 5.44772 0 6V7C0 7.55228 0.447715 8 1 8H2C2.55228 8 3 7.55228 3 7V6C3 5.44772 2.55228 5 2 5Z" fill="#F9365F"/>
<path d="M12 5H11C10.4477 5 10 5.44772 10 6V7C10 7.55228 10.4477 8 11 8H12C12.5523 8 13 7.55228 13 7V6C13 5.44772 12.5523 5 12 5Z" fill="#F9365F"/>
<path d="M7 10H6C5.44772 10 5 10.4477 5 11V12C5 12.5523 5.44772 13 6 13H7C7.55228 13 8 12.5523 8 12V11C8 10.4477 7.55228 10 7 10Z" fill="#F9365F"/>
<path d="M2 10H1C0.447715 10 0 10.4477 0 11V12C0 12.5523 0.447715 13 1 13H2C2.55228 13 3 12.5523 3 12V11C3 10.4477 2.55228 10 2 10Z" fill="#F9365F"/>
<path d="M12 10H11C10.4477 10 10 10.4477 10 11V12C10 12.5523 10.4477 13 11 13H12C12.5523 13 13 12.5523 13 12V11C13 10.4477 12.5523 10 12 10Z" fill="#F9365F"/>
<path d="M7 15H6C5.44772 15 5 15.4477 5 16V17C5 17.5523 5.44772 18 6 18H7C7.55228 18 8 17.5523 8 17V16C8 15.4477 7.55228 15 7 15Z" fill="#F9365F"/>
</g>
<defs>
<clipPath id="clip0_1_1707">
<rect width="13" height="18" fill="white"/>
</clipPath>
</defs>
</svg>
