<svg width="173" height="62" viewBox="0 0 173 62" fill="none" xmlns="http://www.w3.org/2000/svg">
<path d="M78.4583 43.4439C76.3362 43.4439 74.514 43.0675 72.9922 42.3146C71.4703 41.5618 70.227 40.5831 69.2622 39.3785C68.3193 38.174 67.6225 36.8619 67.1724 35.4422C66.7224 34.0226 66.4971 32.6567 66.4971 31.3446V30.6348C66.4971 29.1721 66.7224 27.7309 67.1724 26.3113C67.6439 24.8916 68.362 23.6011 69.3264 22.4395C70.2912 21.278 71.5131 20.3531 72.9922 19.6647C74.4926 18.9549 76.2611 18.6 78.2972 18.6C80.4193 18.6 82.2629 18.9872 83.828 19.7616C85.414 20.5144 86.6787 21.5899 87.6216 22.988C88.565 24.3647 89.133 25.9779 89.3259 27.8278H84.7281C84.5566 26.7522 84.1706 25.8488 83.5704 25.1175C82.992 24.3647 82.2524 23.8054 81.3518 23.4397C80.4516 23.0526 79.4336 22.859 78.2972 22.859C77.1399 22.859 76.1109 23.0633 75.2108 23.472C74.3106 23.8592 73.5601 24.4184 72.9599 25.1498C72.3596 25.8811 71.899 26.7415 71.5773 27.7309C71.2774 28.7204 71.1272 29.8174 71.1272 31.0219C71.1272 32.1835 71.2774 33.259 71.5773 34.2484C71.899 35.2379 72.3705 36.109 72.9922 36.8619C73.6138 37.5932 74.3748 38.1632 75.2749 38.5719C76.1965 38.9806 77.2578 39.185 78.4583 39.185C80.2159 39.185 81.6949 38.7547 82.8955 37.8944C84.1169 37.0124 84.8565 35.7864 85.1141 34.2162H89.7119C89.4975 35.894 88.9296 37.4319 88.0075 38.83C87.086 40.2282 85.8213 41.3467 84.2134 42.1856C82.606 43.0245 80.6874 43.4439 78.4583 43.4439Z" fill="black"/>
<path d="M91.8284 42.8308V19.2776H96.2978V42.8308H91.8284ZM89.6421 22.6331V19.2776H96.2978V22.6331H89.6421Z" fill="black"/>
<path d="M108.184 43.4439C106.641 43.4439 105.28 43.1965 104.101 42.7018C102.922 42.2071 101.925 41.5403 101.111 40.7014C100.296 39.841 99.6747 38.873 99.246 37.7975C98.8387 36.7221 98.6348 35.6035 98.6348 34.442V33.7644C98.6348 32.5599 98.8491 31.4199 99.2778 30.3444C99.7279 29.2474 100.36 28.2794 101.175 27.4405C102.011 26.5802 103.019 25.9134 104.197 25.4401C105.377 24.9454 106.705 24.698 108.184 24.698C109.664 24.698 110.992 24.9454 112.172 25.4401C113.35 25.9134 114.347 26.5802 115.161 27.4405C115.997 28.2794 116.63 29.2474 117.059 30.3444C117.487 31.4199 117.702 32.5599 117.702 33.7644V34.442C117.702 35.6035 117.487 36.7221 117.059 37.7975C116.651 38.873 116.041 39.841 115.226 40.7014C114.412 41.5403 113.415 42.2071 112.236 42.7018C111.057 43.1965 109.706 43.4439 108.184 43.4439ZM108.184 39.6044C109.278 39.6044 110.199 39.3678 110.95 38.8945C111.7 38.3998 112.268 37.7438 112.654 36.9264C113.039 36.0875 113.232 35.1411 113.232 34.0871C113.232 33.0116 113.029 32.0652 112.622 31.2478C112.236 30.4089 111.657 29.7528 110.885 29.2796C110.135 28.7849 109.235 28.5375 108.184 28.5375C107.134 28.5375 106.223 28.7849 105.452 29.2796C104.701 29.7528 104.122 30.4089 103.715 31.2478C103.308 32.0652 103.104 33.0116 103.104 34.0871C103.104 35.1411 103.297 36.0875 103.683 36.9264C104.09 37.7438 104.669 38.3998 105.419 38.8945C106.169 39.3678 107.091 39.6044 108.184 39.6044Z" fill="black"/>
<path d="M125.956 43.3794C123.941 43.3794 122.376 42.7126 121.262 41.379C120.169 40.0453 119.622 38.0664 119.622 35.4422V25.2788H124.091V35.8294C124.091 36.9049 124.391 37.7653 124.991 38.4106C125.592 39.0344 126.406 39.3463 127.435 39.3463C128.464 39.3463 129.3 39.0129 129.943 38.3461C130.608 37.6793 130.94 36.7758 130.94 35.6358V25.2788H135.409V42.8308H131.872V35.3777H132.226C132.226 37.1415 132.001 38.6149 131.551 39.798C131.1 40.981 130.426 41.8737 129.525 42.476C128.625 43.0782 127.499 43.3794 126.149 43.3794H125.956Z" fill="black"/>
<path d="M146.17 43.4116C144.948 43.4116 143.822 43.1858 142.793 42.7341C141.765 42.2824 140.875 41.6478 140.125 40.8304C139.375 40.0131 138.796 39.0666 138.389 37.9911C137.981 36.8941 137.778 35.7111 137.778 34.442V33.7644C137.778 32.5169 137.971 31.3446 138.356 30.2476C138.764 29.1506 139.321 28.1934 140.028 27.376C140.757 26.5586 141.625 25.9241 142.633 25.4724C143.662 24.9992 144.798 24.7626 146.041 24.7626C147.413 24.7626 148.613 25.0637 149.642 25.666C150.692 26.2467 151.528 27.1287 152.15 28.3117C152.772 29.4947 153.115 30.9789 153.179 32.7642L151.861 31.2155V19.2776H156.33V42.8308H152.793V35.3777H153.565C153.5 37.163 153.136 38.6579 152.472 39.8625C151.807 41.0455 150.928 41.9382 149.835 42.5405C148.763 43.1212 147.541 43.4116 146.17 43.4116ZM147.166 39.6366C148.045 39.6366 148.849 39.4431 149.578 39.0559C150.307 38.6472 150.885 38.0664 151.314 37.3136C151.764 36.5392 151.99 35.6358 151.99 34.6033V33.3127C151.99 32.2802 151.764 31.4199 151.314 30.7315C150.864 30.0217 150.275 29.484 149.546 29.1183C148.817 28.7311 148.024 28.5375 147.166 28.5375C146.202 28.5375 145.344 28.7741 144.594 29.2474C143.865 29.6991 143.287 30.3444 142.858 31.1833C142.451 32.0221 142.247 33.0008 142.247 34.1194C142.247 35.2379 142.461 36.2166 142.89 37.0554C143.319 37.8728 143.897 38.5074 144.627 38.9591C145.377 39.4108 146.223 39.6366 147.166 39.6366Z" fill="black"/>
<path d="M49.6588 45.3077C48.1146 45.3077 47.1633 44.5923 45.6089 43.7498C44.0546 42.9073 39.5589 39.515 39.5589 35.2923C39.5589 32.4278 38.8231 30.1109 37.5699 28.2645C36.326 26.4322 34.6409 25.1628 32.8879 24.2667C32.0432 23.835 31.1641 23.4819 30.2888 23.1902C29.7784 23.0202 29.4823 22.4703 29.7037 21.9788C31.107 18.8613 34.2323 16.6923 37.8628 16.6923C42.8046 16.6923 46.8111 20.7124 46.8111 25.6716C46.8111 26.7326 46.6277 27.7507 46.291 28.6955C47.7173 27.7309 49.4359 27.1681 51.2852 27.1681C56.2271 27.1681 60.2332 31.1882 60.2332 36.1474C60.2332 42.1176 55.0052 45.3077 49.6588 45.3077Z" fill="black"/>
<path d="M16.9834 35.3992C16.9834 40.1323 20.0931 44.076 24.2128 44.9474C24.8486 45.1806 25.5351 45.3077 26.2513 45.3077H40.1542C40.6204 45.3077 40.8235 44.682 40.4675 44.3797C38.0377 42.3167 36.232 39.4093 36.232 35.2923C36.232 33.0302 35.6611 31.3826 34.8201 30.144C33.9696 28.8911 32.7733 27.9547 31.3779 27.2412C29.9694 26.5214 28.4404 26.0629 26.9802 25.7378C26.6363 25.6942 26.2863 25.6716 25.9317 25.6716C20.9896 25.6716 16.9834 30.0268 16.9834 35.3992Z" fill="black"/>
</svg>
