<svg width="18" height="16" viewBox="0 0 18 16" fill="none" xmlns="http://www.w3.org/2000/svg">
<g clip-path="url(#clip0_1_1700)">
<path d="M0 3.55556C0 1.59188 1.61177 0 3.6 0H14.4C16.3882 0 18 1.59188 18 3.55556V12.4444C18 14.4081 16.3882 16 14.4 16H3.6C1.61177 16 0 14.4081 0 12.4444V3.55556Z" fill="#F9365F"/>
<mask id="mask0_1_1700" style="mask-type:alpha" maskUnits="userSpaceOnUse" x="0" y="0" width="18" height="16">
<path d="M0 3.55556C0 1.59188 1.61177 0 3.6 0H14.4C16.3882 0 18 1.59188 18 3.55556V12.4444C18 14.4081 16.3882 16 14.4 16H3.6C1.61177 16 0 14.4081 0 12.4444V3.55556Z" fill="white"/>
</mask>
<g mask="url(#mask0_1_1700)">
<path d="M0 0L7.00216 7.60729C8.07341 8.77111 9.92655 8.77112 10.9978 7.60729L18 0" stroke="#111111" stroke-width="2"/>
</g>
</g>
<defs>
<clipPath id="clip0_1_1700">
<rect width="18" height="16" fill="white"/>
</clipPath>
</defs>
</svg>
