<svg width="207" height="75" viewBox="0 0 207 75" fill="none" xmlns="http://www.w3.org/2000/svg">
<path d="M74.6252 48.9846C72.3023 48.9846 70.2488 48.53 68.4647 47.6209C66.6807 46.6907 65.3014 45.3783 64.3266 43.6836C63.3517 41.9888 62.8643 39.9944 62.8643 37.7003C62.8643 35.4062 63.3517 33.4118 64.3266 31.717C65.3014 30.0016 66.6807 28.6892 68.4647 27.7799C70.2488 26.8498 72.3023 26.3848 74.6252 26.3848C76.2018 26.3848 77.5916 26.5501 78.7945 26.8808C80.0186 27.1908 81.1386 27.6868 82.1547 28.3689V32.8641C81.2423 32.12 80.1949 31.5827 79.0126 31.252C77.8509 30.9006 76.5235 30.725 75.03 30.725C73.6402 30.725 72.3849 31.0143 71.265 31.593C70.1657 32.151 69.2946 32.9571 68.6515 34.0111C68.0085 35.0651 67.6868 36.2949 67.6868 37.7003C67.6868 39.1264 67.9773 40.3767 68.5579 41.4514C69.1596 42.5055 69.9996 43.3219 71.0782 43.9006C72.1568 44.4792 73.4015 44.7686 74.812 44.7686C76.098 44.7686 77.2179 44.5413 78.1722 44.0866V39.9014H74.6564V36.4292H82.7459V46.8768C80.6924 48.2822 77.9858 48.9846 74.6252 48.9846Z" fill="black"/>
<path d="M103.601 48.9846C100.739 48.9846 98.488 48.3027 96.8494 46.9386C95.2109 45.554 94.3916 43.6216 94.3916 41.1414C94.3916 38.682 95.1177 36.7393 96.5695 35.3132C98.0423 33.8871 100.137 33.1741 102.855 33.1741C104.638 33.1741 106.153 33.5048 107.397 34.1661C108.642 34.8275 109.586 35.7472 110.229 36.9252C110.872 38.0826 111.193 39.395 111.193 40.8624V42.7535H98.8722C99.204 44.655 100.988 45.6056 104.223 45.6056C105.178 45.6056 106.163 45.523 107.179 45.3576C108.196 45.1923 109.078 44.9649 109.824 44.6756V47.9616C109.098 48.2716 108.165 48.52 107.024 48.7056C105.883 48.8918 104.742 48.9846 103.601 48.9846ZM106.744 39.7154C106.682 38.7233 106.308 37.9586 105.624 37.4213C104.939 36.8632 103.995 36.5842 102.792 36.5842C101.61 36.5842 100.676 36.8632 99.9921 37.4213C99.3077 37.9793 98.9341 38.744 98.8722 39.7154H106.744Z" fill="black"/>
<path d="M120.823 48.9846C117.961 48.9846 115.71 48.3027 114.072 46.9386C112.433 45.554 111.613 43.6216 111.613 41.1414C111.613 38.682 112.339 36.7393 113.792 35.3132C115.264 33.8871 117.359 33.1741 120.076 33.1741C121.86 33.1741 123.375 33.5048 124.619 34.1661C125.864 34.8275 126.807 35.7472 127.45 36.9252C128.093 38.0826 128.415 39.395 128.415 40.8624V42.7535H116.094C116.426 44.655 118.21 45.6056 121.446 45.6056C122.4 45.6056 123.385 45.523 124.401 45.3576C125.418 45.1923 126.299 44.9649 127.046 44.6756V47.9616C126.32 48.2716 125.387 48.52 124.246 48.7056C123.105 48.8918 121.964 48.9846 120.823 48.9846ZM123.966 39.7154C123.903 38.7233 123.53 37.9586 122.846 37.4213C122.161 36.8632 121.217 36.5842 120.014 36.5842C118.832 36.5842 117.899 36.8632 117.214 37.4213C116.529 37.9793 116.156 38.744 116.094 39.7154H123.966Z" fill="black"/>
<path d="M129.458 33.6391H134.001V35.4682C134.685 34.7035 135.494 34.1352 136.428 33.7631C137.382 33.3704 138.377 33.1741 139.415 33.1741C141.447 33.1741 142.962 33.7218 143.957 34.8171C144.973 35.8919 145.482 37.3489 145.482 39.1884V48.52H140.783V39.7154C140.783 37.7933 139.892 36.8323 138.107 36.8323C137.319 36.8323 136.583 37.0286 135.898 37.4213C135.214 37.7933 134.633 38.3513 134.156 39.0954V48.52H129.458V33.6391Z" fill="black"/>
<path d="M149.627 31.345C148.901 31.345 148.29 31.1074 147.792 30.632C147.294 30.1566 147.045 29.5573 147.045 28.8339C147.045 28.1312 147.294 27.5422 147.792 27.0668C148.29 26.5708 148.901 26.3228 149.627 26.3228C150.353 26.3228 150.965 26.5708 151.463 27.0668C151.961 27.5422 152.21 28.1312 152.21 28.8339C152.21 29.5573 151.961 30.1566 151.463 30.632C150.965 31.1074 150.353 31.345 149.627 31.345ZM147.262 33.6391H151.992V48.52H147.262V33.6391Z" fill="black"/>
<path d="M160.005 48.9846C158.885 48.9846 157.682 48.8607 156.396 48.6128C155.13 48.3855 154.135 48.0549 153.409 47.6209V43.9626C154.238 44.4586 155.234 44.8616 156.396 45.1716C157.557 45.4816 158.636 45.6366 159.631 45.6366C160.482 45.6366 161.104 45.5643 161.498 45.4196C161.892 45.2749 162.089 45.0063 162.089 44.6136C162.089 44.3036 161.975 44.0556 161.747 43.8696C161.519 43.6629 161.166 43.4872 160.689 43.3425C160.233 43.1772 159.465 42.9395 158.387 42.6295C157.122 42.2575 156.126 41.8855 155.4 41.5135C154.695 41.1208 154.155 40.6351 153.782 40.0564C153.429 39.4777 153.253 38.7337 153.253 37.8243C153.253 36.2742 153.865 35.1168 155.089 34.3521C156.333 33.5668 158.013 33.1741 160.129 33.1741C161.166 33.1741 162.235 33.2877 163.334 33.5151C164.454 33.7218 165.315 34.0008 165.917 34.3521V37.9173C165.315 37.5246 164.527 37.2043 163.552 36.9562C162.598 36.7082 161.664 36.5842 160.751 36.5842C159.901 36.5842 159.237 36.6669 158.76 36.8323C158.304 36.9976 158.075 37.3076 158.075 37.7623C158.075 38.155 158.293 38.4546 158.729 38.6614C159.185 38.868 160.026 39.1264 161.249 39.4364L161.872 39.5914C163.178 39.9427 164.195 40.3354 164.921 40.7695C165.647 41.1828 166.155 41.6891 166.445 42.2885C166.757 42.8672 166.912 43.6009 166.912 44.4896C166.912 45.8538 166.321 46.9491 165.139 47.7759C163.956 48.5817 162.245 48.9846 160.005 48.9846Z" fill="black"/>
<path d="M167.998 25.6097H172.696V35.3442C173.402 34.6208 174.2 34.0835 175.092 33.7321C175.984 33.3601 176.938 33.1741 177.955 33.1741C179.988 33.1741 181.502 33.7218 182.497 34.8171C183.513 35.8919 184.022 37.3489 184.022 39.1884V48.52H179.324V39.7154C179.324 37.7933 178.432 36.8323 176.648 36.8323C175.859 36.8323 175.123 37.0286 174.439 37.4213C173.754 37.7933 173.174 38.3513 172.696 39.0953V48.52H167.998V25.6097Z" fill="black"/>
<path fill-rule="evenodd" clip-rule="evenodd" d="M46.8189 29.9961C46.8189 33.9341 43.6151 37.1265 39.6629 37.1265C35.7105 37.1265 32.5066 33.9341 32.5066 29.9961C32.5066 26.0582 35.7105 22.8658 39.6629 22.8658C43.6151 22.8658 46.8189 26.0582 46.8189 29.9961ZM23.0168 36.6083C30.8134 36.0846 37.6083 41.9008 38.2413 49.6857C38.3068 50.4924 38.3037 51.2886 38.2367 52.0692C30.4402 52.5928 23.6452 46.7767 23.0123 38.9919C22.9468 38.1852 22.9499 37.3887 23.0168 36.6083ZM43.2812 51.7966C51.0943 51.166 56.9316 44.3956 56.406 36.6273C55.6226 36.5606 54.8235 36.5575 54.0138 36.6229C46.2006 37.2535 40.3634 44.0238 40.889 51.7921C41.6723 51.8588 42.4716 51.862 43.2812 51.7966Z" fill="black"/>
</svg>
