<svg width="31" height="28" viewBox="0 0 31 28" fill="none" xmlns="http://www.w3.org/2000/svg">
<path d="M0 13.6585C0 11.6268 2.53756 9.70155 6.42804 8.50764C5.53023 4.53198 5.9293 1.36897 7.6875 0.356294C8.09279 0.118746 8.56663 0.00622694 9.08411 0.00622694V1.40021C8.79729 1.40021 8.56663 1.45647 8.37332 1.56277C7.52538 2.05032 7.15751 3.90689 7.44438 6.29477C7.51293 6.88238 7.62512 7.50119 7.76233 8.13255C8.98437 7.83252 10.3185 7.6012 11.7214 7.45121C12.5631 6.29477 13.436 5.24456 14.3151 4.32567C12.2826 2.43163 10.3747 1.39399 9.07783 1.39399V0C10.7924 0 13.037 1.22521 15.3064 3.35057C17.5759 1.23772 19.8204 0.0249619 21.535 0.0249619V1.41895C20.2444 1.41895 18.3303 2.45042 16.2977 4.33195C17.1706 5.25085 18.0435 6.29477 18.8727 7.45121C20.2818 7.6012 21.616 7.83252 22.8381 8.13878C22.9814 7.51369 23.0874 6.90734 23.1622 6.32601C23.4553 3.93814 23.0937 2.08156 22.252 1.58773C22.0649 1.47521 21.8218 1.42523 21.535 1.42523V0.0312983C22.0587 0.0312983 22.5326 0.143763 22.944 0.38131C24.696 1.39399 25.0888 4.55071 24.1847 8.51386C28.0628 9.71406 30.5879 11.6331 30.5879 13.6585C30.5879 15.69 28.0503 17.6153 24.1598 18.8093C25.0576 22.7849 24.6586 25.9479 22.9004 26.9605C22.4951 27.1981 22.0213 27.3106 21.4976 27.3106C19.783 27.3106 17.5384 26.0854 15.269 23.96C12.9995 26.0729 10.755 27.2856 9.04047 27.2856C8.5167 27.2856 8.04286 27.1731 7.6314 26.9355C5.87943 25.9228 5.48659 22.7661 6.39068 18.803C2.52509 17.6091 0 15.6838 0 13.6585ZM8.1177 9.48901C8.34842 10.2954 8.63518 11.1267 8.95935 11.9582C9.21504 11.4581 9.48312 10.958 9.77616 10.4579C10.063 9.95783 10.3685 9.47028 10.6739 8.99518C9.78861 9.12649 8.93445 9.28899 8.1177 9.48901ZM10.9732 16.1463C11.4595 16.9902 11.9583 17.7903 12.4758 18.5342C13.4048 18.6155 14.3463 18.6593 15.2939 18.6593C16.2354 18.6593 17.1768 18.6155 18.0996 18.5405C18.617 17.7966 19.1221 17.0027 19.6084 16.165C20.0823 15.3462 20.5125 14.5148 20.9053 13.6772C20.5187 12.8395 20.0823 12.0019 19.6146 11.183C19.1283 10.3391 18.6295 9.53899 18.1121 8.79516C17.1831 8.71389 16.2416 8.67013 15.2939 8.67013C14.3525 8.67013 13.411 8.71389 12.4883 8.78893C11.9708 9.53277 11.4658 10.3266 10.9795 11.1643C10.5056 11.9832 10.0754 12.8145 9.68259 13.6521C10.0754 14.4898 10.5056 15.3274 10.9732 16.1463ZM8.95935 15.3337C8.62272 16.1713 8.33591 17.0089 8.09896 17.8216C8.91571 18.0216 9.77616 18.1904 10.6677 18.3217C10.3622 17.8403 10.0567 17.3465 9.76993 16.8402C9.48312 16.3401 9.21504 15.8338 8.95935 15.3337ZM15.2815 22.0035C15.8613 21.4034 16.4411 20.7346 17.0148 20.0032C16.4537 20.0282 15.88 20.0469 15.3002 20.0469C14.7141 20.0469 14.1342 20.0344 13.5669 20.0032C14.128 20.7346 14.7079 21.4034 15.2815 22.0035ZM19.9201 18.3217C20.8055 18.1904 21.6597 18.0278 22.4764 17.8279C22.2457 17.0214 21.9589 16.1901 21.6347 15.3587C21.3791 15.8588 21.111 16.3589 20.8179 16.8589C20.5249 17.359 20.2257 17.8466 19.9201 18.3217ZM15.3127 5.31339C14.7328 5.91346 14.153 6.58229 13.5794 7.31362C14.1405 7.28866 14.7141 7.26992 15.2939 7.26992C15.88 7.26992 16.4598 7.28243 17.0272 7.31362C16.4661 6.58229 15.8863 5.91346 15.3127 5.31339ZM19.9264 8.99518C20.2319 9.47651 20.5374 9.97034 20.8242 10.4767C21.111 10.9768 21.3791 11.4768 21.6347 11.9769C21.9714 11.1393 22.2582 10.3017 22.4951 9.48901C21.6783 9.29522 20.8179 9.12649 19.9264 8.99518ZM25.5688 16.8214C27.776 15.8775 29.2038 14.6398 29.2038 13.6585C29.2038 12.677 27.776 11.4331 25.5688 10.4954C25.0327 10.2641 24.4466 10.0578 23.8418 9.8641C23.4865 11.0893 23.0189 12.3645 22.439 13.6709C23.0126 14.9711 23.474 16.2401 23.8231 17.459C24.4404 17.2653 25.0265 17.0527 25.5688 16.8214ZM22.2146 25.7541C23.0625 25.2665 23.4304 23.41 23.1435 21.0221C23.0749 20.4345 22.9628 19.8156 22.8256 19.1843C21.6035 19.4843 20.2693 19.7156 18.8664 19.8656C18.0248 21.0221 17.1519 22.0723 16.2728 22.9912C18.3053 24.8852 20.2132 25.9228 21.5101 25.9228C21.7906 25.9166 22.0275 25.8604 22.2146 25.7541ZM7.42564 20.9908C7.1326 23.3788 7.49419 25.2353 8.33591 25.7291C8.52299 25.8416 8.7661 25.8917 9.05292 25.8917C10.3435 25.8917 12.2576 24.8602 14.2902 22.9787C13.4173 22.0598 12.5444 21.0158 11.7152 19.8594C10.3061 19.7094 8.97186 19.4781 7.74982 19.1718C7.60644 19.8031 7.49419 20.4095 7.42564 20.9908ZM5.02522 16.8214C5.56142 17.0527 6.14751 17.259 6.75227 17.4528C7.10764 16.2276 7.57525 14.9524 8.15511 13.6459C7.58148 12.3457 7.12015 11.0768 6.77096 9.85782C6.15374 10.0516 5.5677 10.2641 5.01901 10.4954C2.81189 11.4393 1.38412 12.677 1.38412 13.6585C1.39038 14.6398 2.8181 15.8838 5.02522 16.8214Z" fill="black"/>
<path d="M15.301 16.5151C13.7273 16.5151 12.4517 15.2362 12.4517 13.6584C12.4517 12.0807 13.7273 10.8018 15.301 10.8018C16.8746 10.8018 18.1502 12.0807 18.1502 13.6584C18.1502 15.2362 16.8746 16.5151 15.301 16.5151Z" fill="black"/>
</svg>
