<svg width="176" height="72" viewBox="0 0 176 72" fill="none" xmlns="http://www.w3.org/2000/svg">
<path d="M81.6665 44.7848C80.4657 44.7848 79.3485 44.579 78.3149 44.1676C77.2966 43.7413 76.3998 43.147 75.6244 42.3855C74.8645 41.6236 74.2715 40.7402 73.8461 39.7349C73.4204 38.7143 73.2075 37.6173 73.2075 36.4443C73.2075 35.2714 73.4204 34.1822 73.8461 33.1768C74.2715 32.1561 74.8645 31.2726 75.6244 30.5262C76.3846 29.7797 77.2738 29.2008 78.2921 28.7896C79.3257 28.363 80.4429 28.1497 81.6437 28.1497C82.9206 28.1497 84.0534 28.3554 85.0413 28.7667C85.889 29.1144 86.6447 29.5708 87.3084 30.1362C87.5088 30.3069 87.5118 30.611 87.3267 30.7984L85.6138 32.531C85.4256 32.7213 85.1189 32.7146 84.9155 32.5406C84.5662 32.2418 84.1674 31.9968 83.7189 31.8057C83.1259 31.5468 82.4344 31.4173 81.6437 31.4173C80.9447 31.4173 80.2988 31.5392 79.7058 31.7829C79.128 32.0114 78.6266 32.3465 78.2009 32.7883C77.7907 33.2301 77.4638 33.7633 77.2206 34.3878C76.9925 35.0124 76.8784 35.6979 76.8784 36.4443C76.8784 37.206 76.9925 37.8992 77.2206 38.5238C77.4638 39.1482 77.7907 39.6815 78.2009 40.123C78.6266 40.5649 79.128 40.9078 79.7058 41.1516C80.2988 41.395 80.9447 41.517 81.6437 41.517C82.4648 41.517 83.1791 41.3874 83.7873 41.1288C84.2415 40.9352 84.6494 40.6861 85.0105 40.3821C85.212 40.2122 85.5131 40.2076 85.699 40.3943L87.4304 42.1291C87.6198 42.3189 87.6141 42.6293 87.4076 42.7996C86.723 43.3642 85.9571 43.8202 85.1098 44.1676C84.1214 44.579 82.9738 44.7848 81.6665 44.7848Z" fill="black"/>
<path d="M68.9597 44.5333C68.6997 44.5333 68.4888 44.3219 68.4888 44.0613V28.873C68.4888 28.6124 68.6997 28.4011 68.9597 28.4011H71.5975C71.8575 28.4011 72.0685 28.6124 72.0685 28.873V44.0613C72.0685 44.3219 71.8575 44.5333 71.5975 44.5333H68.9597Z" fill="black"/>
<path d="M88.6084 44.0613C88.6084 44.3219 88.8194 44.5333 89.0794 44.5333H91.7171C91.7338 44.5333 91.7502 44.5326 91.7665 44.5307C91.7825 44.5326 91.7988 44.5333 91.8156 44.5333H99.6975C99.9576 44.5333 100.169 44.3219 100.169 44.0613V41.8975C100.169 41.6369 99.9576 41.4255 99.6975 41.4255H92.1881V37.7925H98.8997C99.1597 37.7925 99.3702 37.5812 99.3702 37.3206V35.2711C99.3702 35.0104 99.1597 34.7991 98.8997 34.7991H92.1881V31.4859H99.5835C99.8435 31.4859 100.054 31.2745 100.054 31.0139V28.873C100.054 28.6124 99.8435 28.4011 99.5835 28.4011H91.8156C91.7988 28.4011 91.7825 28.4019 91.7665 28.4036C91.7502 28.4019 91.7338 28.4011 91.7171 28.4011H89.0794C88.8194 28.4011 88.6084 28.6124 88.6084 28.873V44.0613Z" fill="black"/>
<path fill-rule="evenodd" clip-rule="evenodd" d="M104.703 44.5333C104.679 44.5333 104.655 44.5314 104.632 44.528C104.608 44.5314 104.584 44.5333 104.56 44.5333H101.968C101.707 44.5333 101.497 44.3219 101.497 44.0613V28.873C101.497 28.6124 101.707 28.4011 101.968 28.4011H104.56C104.584 28.4011 104.608 28.403 104.632 28.4065C104.655 28.403 104.679 28.4011 104.703 28.4011H108.405C109.439 28.4011 110.313 28.5915 111.027 28.9723C111.757 29.3532 112.312 29.8635 112.692 30.5033C113.072 31.1431 113.262 31.8515 113.262 32.6284C113.262 33.6185 112.943 34.4564 112.304 35.1419C112.029 35.4372 111.698 35.6929 111.31 35.9091C111.854 36.1762 112.314 36.5145 112.692 36.9242C113.436 37.7163 113.809 38.6914 113.809 39.8491C113.809 40.7326 113.589 41.5322 113.148 42.2484C112.722 42.9489 112.099 43.5051 111.278 43.9162C110.473 44.3276 109.499 44.5333 108.359 44.5333H104.703ZM105.031 41.7455H108.018C108.717 41.7455 109.264 41.5398 109.659 41.1287C110.054 40.7173 110.252 40.2145 110.252 39.6206C110.252 39.2091 110.161 38.8438 109.978 38.5238C109.796 38.2038 109.537 37.9524 109.203 37.7697C108.884 37.5868 108.489 37.4955 108.018 37.4955H105.031V41.7455ZM107.721 34.7763H105.031V31.1888H107.721C108.314 31.1888 108.793 31.3411 109.158 31.6458C109.522 31.9352 109.705 32.377 109.705 32.9711C109.705 33.5804 109.522 34.0375 109.158 34.3421C108.793 34.6316 108.314 34.7763 107.721 34.7763Z" fill="black"/>
<path d="M114.963 44.0613C114.963 44.3219 115.174 44.5333 115.434 44.5333H118.072C118.088 44.5333 118.105 44.5326 118.121 44.5307C118.137 44.5326 118.154 44.5333 118.17 44.5333H126.052C126.312 44.5333 126.523 44.3219 126.523 44.0613V41.8975C126.523 41.6369 126.312 41.4255 126.052 41.4255H118.543V37.7925H125.254C125.514 37.7925 125.725 37.5812 125.725 37.3206V35.2711C125.725 35.0104 125.514 34.7991 125.254 34.7991H118.543V31.4859H125.938C126.198 31.4859 126.409 31.2745 126.409 31.0139V28.873C126.409 28.6124 126.198 28.4011 125.938 28.4011H118.17C118.154 28.4011 118.137 28.4019 118.121 28.4036C118.105 28.4019 118.088 28.4011 118.072 28.4011H115.434C115.174 28.4011 114.963 28.6124 114.963 28.873V44.0613Z" fill="black"/>
<path fill-rule="evenodd" clip-rule="evenodd" d="M131.431 44.0613V37.8839H131.901C131.904 37.9722 131.933 38.0612 131.99 38.1406L136.466 44.3379C136.554 44.4606 136.696 44.5333 136.847 44.5333H139.895C140.285 44.5333 140.506 44.0853 140.27 43.7748L135.691 37.7678C136.239 37.6701 136.742 37.5108 137.2 37.2898C138.02 36.8937 138.659 36.3453 139.115 35.6446C139.571 34.9286 139.799 34.0984 139.799 33.1539C139.799 32.2247 139.571 31.4021 139.115 30.6861C138.659 29.9701 138.028 29.4141 137.222 29.018C136.417 28.6067 135.482 28.4011 134.418 28.4011H131.058C131.042 28.4011 131.025 28.4019 131.009 28.4036C130.993 28.4019 130.977 28.4011 130.96 28.4011H128.322C128.062 28.4011 127.851 28.6124 127.851 28.873V44.0613C127.851 44.3219 128.062 44.5333 128.322 44.5333H130.96C131.22 44.5333 131.431 44.3219 131.431 44.0613ZM133.984 35.2333H131.431V31.1888H134.007C134.722 31.1888 135.269 31.3792 135.649 31.7601C136.029 32.1409 136.219 32.6207 136.219 33.1996C136.219 33.8242 136.022 34.3193 135.626 34.6849C135.246 35.0505 134.699 35.2333 133.984 35.2333Z" fill="black"/>
<path d="M145.493 44.1448C146.527 44.5714 147.629 44.7848 148.799 44.7848C150.395 44.7848 151.801 44.4495 153.017 43.7794C154.249 43.109 155.206 42.1189 155.89 40.8088C156.59 39.4834 156.939 37.8534 156.939 35.9188V35.8652C156.939 35.6045 156.728 35.3933 156.468 35.3933H148.951C148.691 35.3933 148.48 35.6045 148.48 35.8652V37.9678C148.48 38.2255 148.686 38.4354 148.943 38.4396L153.105 38.5059C153.016 38.8415 152.895 39.1524 152.744 39.4377C152.394 40.1078 151.885 40.6259 151.216 40.9916C150.562 41.3421 149.764 41.517 148.822 41.517C147.895 41.517 147.074 41.304 146.359 40.8773C145.645 40.4507 145.083 39.8568 144.672 39.0949C144.262 38.3333 144.057 37.4497 144.057 36.4443C144.057 35.4389 144.262 34.563 144.672 33.8166C145.098 33.0549 145.683 32.4684 146.428 32.0571C147.173 31.6306 148.016 31.4173 148.959 31.4173C149.84 31.4173 150.631 31.5849 151.33 31.92C151.879 32.1831 152.372 32.5495 152.808 33.0191C153.001 33.2273 153.332 33.2501 153.533 33.0489L155.288 31.29C155.461 31.1165 155.473 30.8379 155.305 30.6602C154.61 29.929 153.764 29.3435 152.767 28.9038C151.642 28.4011 150.388 28.1497 149.004 28.1497C147.804 28.1497 146.679 28.363 145.63 28.7896C144.581 29.2008 143.661 29.7874 142.871 30.549C142.096 31.2954 141.488 32.1714 141.047 33.1768C140.606 34.1822 140.386 35.2714 140.386 36.4443C140.386 37.6173 140.598 38.7143 141.024 39.7349C141.465 40.7402 142.065 41.6236 142.825 42.3855C143.585 43.1318 144.474 43.7185 145.493 44.1448Z" fill="black"/>
<path d="M21.3908 22.6548C19.374 25.2249 19.374 28.9866 19.374 36.51C19.374 44.0335 19.374 47.795 21.3908 50.3653C21.8536 50.955 22.3849 51.4872 22.9734 51.9512C23.1987 52.1287 23.4331 52.2907 23.6784 52.4385L33.6057 30.4736C34.0373 29.5187 35.1303 29.0585 36.1128 29.418L42.4214 31.7261C43.0174 31.9441 43.4747 32.4326 43.6537 33.0425L49.4313 52.7063C49.8586 52.4926 50.2535 52.243 50.6238 51.9512C51.2126 51.4872 51.7437 50.955 52.2067 50.3653C54.2232 47.795 54.2232 44.0335 54.2232 36.51C54.2232 28.9866 54.2232 25.2249 52.2067 22.6548C51.7437 22.065 51.2126 21.5326 50.6238 21.0688C48.0594 19.0476 44.3057 19.0476 36.7987 19.0476C29.2915 19.0476 25.5379 19.0476 22.9734 21.0688C22.3849 21.5326 21.8536 22.065 21.3908 22.6548Z" fill="black"/>
</svg>
