<svg width="11" height="33" viewBox="0 0 11 33" fill="none" xmlns="http://www.w3.org/2000/svg">
<g clip-path="url(#clip0_266_128)">
<path d="M3.78573 3.90789C3.90735 2.17105 4.03957 1.04211 1.6703 0C1.6703 1.53854 1.6703 3.17003 3.78573 3.90789Z" fill="#595A72"/>
<path d="M5.55615 7.5022C5.05549 5.22105 3.86923 4.58613 0.878098 4.53377C1.09488 5.88871 3.05172 7.32936 5.55615 7.5022Z" fill="#595A72"/>
<path d="M6.58887 11.1998C6.15179 8.90493 4.98365 8.23553 1.99517 8.09563C2.1743 9.45647 4.09026 10.9538 6.58887 11.1998Z" fill="#595A72"/>
<path d="M6.9165 15.8228C6.81574 13.4867 5.75721 12.6471 2.82194 12.054C2.80252 13.4269 4.48105 15.1993 6.9165 15.8228Z" fill="#595A72"/>
<path d="M6.14349 21.1019C6.83743 18.8747 6.14348 17.2175 3.27557 16.0577C2.82391 17.8853 3.5745 19.6624 6.14349 21.1019Z" fill="#595A72"/>
<path d="M6.59697 20.1852C6.7041 17.8494 7.91803 16.5451 11 16.4856C10.8017 18.3601 9.49393 19.7565 6.59697 20.1852Z" fill="#595A72"/>
<path d="M6.93959 15.838C6.31899 13.5881 7.06684 11.9557 9.97112 10.8955C10.3626 12.7378 9.55427 14.488 6.93959 15.838Z" fill="#595A72"/>
<path d="M6.27612 10.8711C5.67202 8.53199 6.75439 6.46356 9.03107 5.65915C9.36697 7.15305 8.47123 9.71945 6.27612 10.8711Z" fill="#595A72"/>
<path d="M5.24877 6.73837C4.42306 4.25897 5.07178 2.83681 6.57428 1.39759C6.97494 3.14522 6.9355 4.89313 5.24877 6.73837Z" fill="#595A72"/>
<path d="M5.07886 25.3673C5.77281 23.1401 5.13994 20.9789 2.35681 20.1857C2.08578 22.5775 2.94127 24.4607 5.07886 25.3673Z" fill="#595A72"/>
<path d="M2.95291 30.1392C3.97578 28.0498 3.67798 25.8139 1.04886 24.5863C0.418729 26.9059 0.978629 28.9026 2.95291 30.1392Z" fill="#595A72"/>
<path d="M3.6771 29.0354C4.52325 26.8643 6.35179 25.6109 8.99023 26.8174C7.71581 28.8392 5.88797 29.7326 3.6771 29.0354Z" fill="#595A72"/>
<path d="M5.28819 24.8498C5.90257 22.598 7.58956 21.1506 10.3389 22.0597C9.28309 24.2101 7.55918 25.2996 5.28819 24.8498Z" fill="#595A72"/>
<path d="M1.3022 32.5658C3.13558 30.1053 6.80225 23.3605 6.80225 16.0658C6.80225 8.77106 3.98174 3.47369 2.57146 1.73685" stroke="#595A72" stroke-width="0.391188"/>
</g>
<defs>
<clipPath id="clip0_266_128">
<rect width="11" height="33" fill="white" transform="matrix(-1 0 0 1 11 0)"/>
</clipPath>
</defs>
</svg>
