<svg width="11" height="33" viewBox="0 0 11 33" fill="none" xmlns="http://www.w3.org/2000/svg">
<g clip-path="url(#clip0_266_113)">
<path d="M7.21427 3.90789C7.09265 2.17105 6.96043 1.04211 9.3297 0C9.3297 1.53854 9.3297 3.17003 7.21427 3.90789Z" fill="#595A72"/>
<path d="M5.44385 7.5022C5.94451 5.22105 7.13077 4.58613 10.1219 4.53377C9.90512 5.88871 7.94828 7.32936 5.44385 7.5022Z" fill="#595A72"/>
<path d="M4.41113 11.1998C4.84821 8.90493 6.01635 8.23553 9.00483 8.09563C8.8257 9.45647 6.90974 10.9538 4.41113 11.1998Z" fill="#595A72"/>
<path d="M4.0835 15.8228C4.18426 13.4867 5.24279 12.6471 8.17806 12.054C8.19748 13.4269 6.51895 15.1993 4.0835 15.8228Z" fill="#595A72"/>
<path d="M4.85651 21.1019C4.16257 18.8747 4.85652 17.2175 7.72443 16.0577C8.17609 17.8853 7.4255 19.6624 4.85651 21.1019Z" fill="#595A72"/>
<path d="M4.40303 20.1852C4.2959 17.8494 3.08197 16.5451 0 16.4856C0.198308 18.3601 1.50607 19.7565 4.40303 20.1852Z" fill="#595A72"/>
<path d="M4.06041 15.838C4.68101 13.5881 3.93316 11.9557 1.02888 10.8955C0.637353 12.7378 1.44573 14.488 4.06041 15.838Z" fill="#595A72"/>
<path d="M4.72388 10.8711C5.32798 8.53199 4.24561 6.46356 1.96893 5.65915C1.63303 7.15305 2.52877 9.71945 4.72388 10.8711Z" fill="#595A72"/>
<path d="M5.75123 6.73837C6.57694 4.25897 5.92822 2.83681 4.42572 1.39759C4.02506 3.14522 4.0645 4.89313 5.75123 6.73837Z" fill="#595A72"/>
<path d="M5.92114 25.3673C5.22719 23.1401 5.86006 20.9789 8.64319 20.1857C8.91422 22.5775 8.05873 24.4607 5.92114 25.3673Z" fill="#595A72"/>
<path d="M8.04709 30.1392C7.02422 28.0498 7.32202 25.8139 9.95114 24.5863C10.5813 26.9059 10.0214 28.9026 8.04709 30.1392Z" fill="#595A72"/>
<path d="M7.3229 29.0354C6.47675 26.8643 4.64821 25.6109 2.00977 26.8174C3.28419 28.8392 5.11203 29.7326 7.3229 29.0354Z" fill="#595A72"/>
<path d="M5.71181 24.8498C5.09743 22.598 3.41044 21.1506 0.661133 22.0597C1.71691 24.2101 3.44082 25.2996 5.71181 24.8498Z" fill="#595A72"/>
<path d="M9.6978 32.5658C7.86442 30.1053 4.19775 23.3605 4.19775 16.0658C4.19775 8.77106 7.01826 3.47369 8.42854 1.73685" stroke="#595A72" stroke-width="0.391188"/>
</g>
<defs>
<clipPath id="clip0_266_113">
<rect width="11" height="33" fill="white"/>
</clipPath>
</defs>
</svg>
