<svg width="122" height="46" viewBox="0 0 122 46" fill="none" xmlns="http://www.w3.org/2000/svg">
<g clip-path="url(#clip0_390_46)">
<path d="M27.0234 33.5531L28.248 36.8573L29.1729 36.3536L27.0681 33.5244L27.0234 33.5531Z" fill="#2D6AB3"/>
<path d="M40.4356 30.2519L41.7389 29.5446V23.9541L36.8198 27.1643L40.4356 30.2519Z" fill="#A2C089"/>
<path d="M29.1732 36.3536L40.4356 30.2516L36.8198 27.1641L27.0684 33.5245L29.1732 36.3536Z" fill="#657CBC"/>
<path d="M32.7679 23.7061L31.031 22.2236C29.7049 25.399 28.2806 28.9364 26.7583 32.8356L26.958 33.3733L32.7679 23.7061Z" fill="#EC2353"/>
<path d="M23.5052 15.8006L20.4281 13.1724L19.603 13.5195L20.4965 15.9441L20.5464 16.085L22.7484 22.0226L22.8614 22.3332L24.2278 26.0184L25.342 29.0277L28.038 22.328C28.3008 21.6546 28.5636 20.9891 28.8053 20.3288L25.3183 17.3482L23.5052 15.8006Z" fill="#EC2353"/>
<path d="M26.958 33.376L27.0237 33.5535L27.0684 33.5247L26.958 33.376Z" fill="#EC2353"/>
<path d="M41.7389 31.3662V29.5444L40.4355 30.2517L41.7389 31.3662Z" fill="#91C9B8"/>
<path d="M23.5048 15.8007L30.5813 15.1221C30.8125 14.3583 31.028 13.6049 31.2277 12.8619C31.664 11.3162 32.0149 9.74788 32.2788 8.16406L20.4277 13.1725L23.5048 15.8007Z" fill="#F37F94"/>
<path d="M36.6384 9.79004C35.8991 11.2603 35.1108 12.9193 34.2734 14.7672L38.3832 14.3705L36.6384 9.79004Z" fill="#F37F94"/>
<path d="M9.86708 5.55659C10.1036 6.1099 10.3374 6.68669 10.5661 7.28176L15.4273 8.90513L9.37044 3.73486H8.40869C8.6014 3.76772 8.78548 3.83872 8.95 3.94366C9.24606 4.16289 9.55175 4.70054 9.86708 5.55659Z" fill="#EC2353"/>
<path d="M10.5659 7.28174C10.8918 8.12214 11.2097 8.99907 11.525 9.92038C11.9227 11.0879 12.3729 12.479 12.8757 14.0937L15.422 8.91816L10.5659 7.28174Z" fill="#D64873"/>
<path d="M13.7139 16.7402L16.5098 25.5905L18.8984 16.2417L13.7139 16.7402Z" fill="#D01E4E"/>
<path d="M10.9735 25.3451C10.2727 23.1423 9.57201 21.0413 8.87128 19.0421L8.56646 18.186L6.07275 19.23L10.9735 25.3451Z" fill="#D01E4E"/>
<path d="M19.0324 11.9822L20.4251 13.1697L32.2683 8.17434C32.3538 7.63255 32.4056 7.08604 32.4233 6.53791C32.4233 6.48049 32.4233 6.42307 32.4233 6.37087C32.4195 5.95106 32.3826 5.53219 32.3129 5.11811C32.284 4.93019 32.2472 4.73184 32.2026 4.52565L31.2513 3.74268H17.9708L16.833 6.05507L19.0324 11.9822Z" fill="#F37466"/>
<path d="M19.603 13.5196L20.4281 13.1725L19.0354 11.985L15.4275 8.90527L12.876 14.0938L13.4278 15.866L13.504 16.1061L19.5872 13.5353L19.603 13.5196Z" fill="#F06B7D"/>
<path d="M19.0325 11.9823L16.8331 6.04736L15.4272 8.90524L19.0325 11.9823Z" fill="#F0537F"/>
<path d="M8.98948 31.2094L11.9667 43.3821L14.0137 35.3696C13.3533 33.0781 12.6955 30.8683 12.0403 28.7404C11.6899 27.5816 11.3343 26.4506 10.9734 25.3475L6.05957 19.2402L8.98948 31.2094Z" fill="#503F7A"/>
<path d="M6.05942 19.2402L3.21096 27.4511L1.19287 33.2712L11.9665 43.3821L8.9867 31.2094L6.05942 19.2402Z" fill="#6E57A5"/>
<path d="M8.55324 18.186C8.28522 17.4309 8.02244 16.701 7.76493 15.9963L0.344232 14.0702L0 13.9814V15.3804L6.05953 19.2378L8.55324 18.186Z" fill="#7B1F2D"/>
<path d="M15.5953 41.0123C15.0698 39.0809 14.5442 37.2001 14.0187 35.3696L11.9717 43.3821L15.5953 41.0123Z" fill="#89489B"/>
<path d="M22.8665 22.333L19.9471 25.5015L19.7369 25.7311L17.3667 28.3019L17.3877 28.3698L20.3938 37.8804L22.2805 36.6485L25.3471 29.0275L24.2329 26.0182L22.8665 22.333Z" fill="#89489B"/>
<path d="M26.9576 33.3755L26.7579 32.8379C26.6922 33.0075 26.6265 33.1746 26.5582 33.3442C26.4688 33.5791 26.3795 33.8088 26.2954 34.0358L27.0285 33.5556L26.9576 33.3755Z" fill="#89489B"/>
<path d="M36.6382 9.78988L38.3777 14.3703L40.6244 14.1563L41.7386 14.0493V12.4494L37.2058 8.68066C37.0192 9.03822 36.83 9.39578 36.6382 9.78988Z" fill="#F0B656"/>
<path d="M19.5925 13.5246V13.522L13.5093 16.0928L13.7142 16.74L18.8987 16.2415L19.5925 13.5246Z" fill="#EC2353"/>
<path d="M19.9468 25.5016L22.8662 22.3331L22.7506 22.0225L20.5512 16.085L20.0151 16.1345L18.8984 16.2416L16.5098 25.5903L17.3664 28.302L19.7366 25.7313L19.9468 25.5016Z" fill="#D64873"/>
<path d="M19.5922 13.5248L18.8984 16.2417L20.0152 16.1347L20.5513 16.0851L20.5013 15.9442L19.6027 13.5195L19.5922 13.5221V13.5248Z" fill="#F0537F"/>
<path d="M0 45.0525H2.00233L0 43.0977V45.0525Z" fill="#46315B"/>
<path d="M38.3778 14.3703L38.3751 14.3729L38.3778 14.3703L37.6578 15.5735L32.7676 23.7087L36.8195 27.1642L41.7386 23.954V14.0493L40.6245 14.1563L38.3778 14.3703Z" fill="#5EA687"/>
<path d="M26.958 33.3757L27.0684 33.5244L36.8199 27.164L32.7679 23.7085L26.958 33.3731V33.3757Z" fill="#A3509E"/>
<path d="M32.7678 23.7084L37.658 15.5733L38.378 14.3701L34.2682 14.7642C33.9266 15.5211 33.5719 16.3093 33.2171 17.1288C32.5164 18.7087 31.7894 20.406 31.0361 22.2208L32.7731 23.7032L32.7678 23.7084Z" fill="#EF403A"/>
<path d="M25.318 17.3483L28.8103 20.3289C28.9548 19.9452 29.0941 19.5642 29.2307 19.1883C29.7265 17.7964 30.1767 16.441 30.5813 15.1221L23.5049 15.8007L25.318 17.3483Z" fill="#EF403A"/>
<path d="M41.7387 4.17594V3.73486H40.1043C39.7837 4.1916 39.4473 4.70837 39.0952 5.30082L41.7387 4.17594Z" fill="#F37466"/>
<path d="M32.0164 3.73486H31.2544L32.2056 4.51784C32.1531 4.2699 32.09 4.00108 32.0164 3.73486Z" fill="#F06B7D"/>
<path d="M16.8333 6.04726L15.9767 3.73486H15.6719H11.8223H9.37061L15.4275 8.90513L16.8333 6.04726Z" fill="#EF3F67"/>
<path d="M7.75704 15.9963C7.60113 15.5735 7.44697 15.1603 7.29456 14.7566C6.90741 13.7387 6.53077 12.7748 6.16464 11.8648C4.7264 8.30485 3.43006 5.59487 2.27561 3.73486H0V13.9814L0.344232 14.0702L7.75704 15.9963Z" fill="#CB2030"/>
<path d="M17.971 3.73486H15.9766L16.8332 6.04726L17.971 3.73486Z" fill="#F0537F"/>
<path d="M13.123 45.0525H16.3499L14.4579 44.3296L13.123 45.0525Z" fill="#1F498A"/>
<path d="M37.2061 8.68052L41.7389 12.4493V4.17578L39.0954 5.29283C38.8904 5.62951 38.6776 5.98968 38.4621 6.36812C38.0627 7.06584 37.644 7.83664 37.2061 8.68052Z" fill="#F6927C"/>
<path d="M9.40479 45.0527H12.1271L11.9668 43.3823L9.40479 45.0527Z" fill="#613E97"/>
<path d="M14.4523 44.3296L16.2339 43.3665C16.0211 42.5835 15.8056 41.8006 15.5928 41.0176L11.9639 43.3874L14.4523 44.3296Z" fill="#613E97"/>
<path d="M21.0058 39.8195L22.2803 36.6484L20.3936 37.8803L21.0058 39.8195Z" fill="#613E97"/>
<path d="M27.0236 33.5532L26.2905 34.0334C25.5897 35.8082 24.9565 37.4464 24.3906 38.9479L28.2481 36.86L27.0236 33.5532Z" fill="#613E97"/>
<path d="M11.9668 43.3823L12.1271 45.0527H13.123L14.4579 44.3297L11.9668 43.3823Z" fill="#46315B"/>
<path d="M0 38.8149V43.0978L2.00233 45.0527H2.00495H9.40463L11.9667 43.3823L0 38.8149Z" fill="#503F7A"/>
<path d="M0 15.3804V21.7982L6.05953 19.2405L0 15.3804Z" fill="#6D183C"/>
<path d="M3.21108 27.4511L6.05953 19.2402L0 21.798V23.4631V32.1542L1.19299 33.2712L3.21108 27.4511Z" fill="#5C3A71"/>
<path d="M1.19299 33.2713L0 32.1543V38.8148L11.9667 43.3822L1.19299 33.2713Z" fill="#613E97"/>
<path d="M40.4382 41.1688L41.7389 41.0618V31.3659L40.4355 30.2515L40.4382 41.1688Z" fill="#72C4B7"/>
<path d="M40.4353 41.1688H40.4379L40.4353 30.2515L29.1729 36.3535L40.4353 41.1688Z" fill="#6EA2B4"/>
<path d="M33.1985 41.7665L40.4353 41.1688L29.1729 36.3535L33.1985 41.7665Z" fill="#019FC9"/>
<path d="M14.4526 44.3298L16.3472 45.0527H16.6862C16.5355 44.4855 16.3858 43.9235 16.2369 43.3667L14.4526 44.3298Z" fill="#6E57A5"/>
<path d="M24.3903 38.948C23.4549 41.3856 22.6744 43.4371 22.0254 45.0526H31.2776L28.2426 36.8574L24.3903 38.948Z" fill="#6E57A5"/>
<path d="M29.173 36.3535L28.248 36.8572L31.2831 45.0524H35.6425L33.1987 41.7665L29.173 36.3535Z" fill="#264080"/>
<path d="M40.4355 41.169L33.1987 41.7667L35.6425 45.0526H41.7388V41.062L40.4381 41.169H40.4355Z" fill="#0E8AB9"/>
<path d="M40.1044 3.73483L40.1885 3.61478H31.9848L32.0163 3.73483C32.0899 3.99583 32.153 4.25682 32.2055 4.51781C32.2502 4.724 32.287 4.92235 32.3159 5.11027C32.3856 5.52435 32.4225 5.94322 32.4262 6.36303C32.4262 6.41523 32.4262 6.47265 32.4262 6.53007C32.4086 7.07819 32.3568 7.62471 32.2712 8.16649C32.0073 9.75031 31.6565 11.3186 31.2201 12.8644C31.0204 13.6056 30.8049 14.359 30.5737 15.1246C30.1708 16.4452 29.7206 17.8006 29.223 19.1908C29.0864 19.5667 28.9603 19.9477 28.8026 20.3314C28.5582 20.9917 28.3007 21.6572 28.0353 22.3306L25.3471 29.0277L22.2806 36.6486L21.0061 39.8197L20.3939 37.8805L17.3878 28.37L17.3667 28.3021L16.5101 25.5904L13.7142 16.7401L13.5092 16.0928L13.433 15.8527L12.876 14.0936C12.3732 12.4772 11.923 11.0853 11.5253 9.91775C11.21 8.99645 10.892 8.11951 10.5662 7.27912C10.3376 6.68405 10.1037 6.10726 9.86722 5.55395C9.55189 4.6979 9.24708 4.16025 8.95277 3.94102C8.78825 3.83608 8.60417 3.76508 8.41146 3.73222C7.91324 3.64125 7.40697 3.60102 6.90052 3.61217H2.20215C2.2258 3.65131 2.24945 3.69307 2.27572 3.73222C3.43017 5.59397 4.72652 8.30482 6.16476 11.8648C6.53264 12.773 6.90928 13.737 7.29468 14.7566C7.44709 15.162 7.60125 15.5752 7.75716 15.9963C8.01993 16.701 8.2827 17.4309 8.54548 18.186L8.85817 19.0525C9.5589 21.05 10.2596 23.151 10.9604 25.3555C11.3107 26.4621 11.6663 27.5931 12.0272 28.7484C12.6841 30.8746 13.3419 33.0844 14.0006 35.3776C14.5262 37.2063 15.0517 39.0872 15.5773 41.0203C15.7901 41.8033 16.0056 42.5862 16.2184 43.3692C16.3673 43.9277 16.5171 44.4897 16.6678 45.0552C16.6678 45.0866 16.6862 45.1205 16.694 45.1518H21.9915L22.031 45.0552C22.6748 43.4397 23.4552 41.3883 24.3959 38.9506C24.9688 37.4525 25.602 35.8143 26.2958 34.0361C26.3851 33.809 26.4744 33.5794 26.5585 33.3445C26.6269 33.1748 26.6925 33.0078 26.7582 32.8382C28.2806 28.9407 29.7048 25.4033 31.0309 22.2262C31.7912 20.4114 32.5182 18.7141 33.2119 17.1342C33.5719 16.3147 33.9267 15.5265 34.263 14.7696C35.1039 12.9218 35.8922 11.2627 36.628 9.79248C36.8198 9.40882 37.009 9.04082 37.1956 8.68326C37.6318 7.84112 38.0504 7.06945 38.4516 6.36825C38.6671 5.98981 38.8799 5.62964 39.0849 5.29296C39.4475 4.6979 39.7839 4.19157 40.1044 3.73483Z" fill="white"/>
<path d="M64.8603 23.7685V24.421C64.8603 25.9069 63.945 27.2937 62.1143 28.5812C60.2847 29.8672 58.091 30.5426 55.8498 30.51C52.4811 30.51 49.7894 29.3364 47.7748 26.9892C45.7602 24.642 44.7529 21.484 44.7529 17.5151C44.7529 13.4732 45.8154 10.2647 47.9404 7.8897C50.0653 5.51467 52.9041 4.32715 56.4568 4.32715C59.0565 4.32715 61.171 5.02313 62.8001 6.41509C63.5826 7.05075 64.2094 7.85468 64.6332 8.76618C65.057 9.67768 65.2667 10.6729 65.2466 11.6767C65.2466 12.5458 64.7499 13.1278 63.7619 13.4149C62.7739 13.702 59.9254 13.8534 55.2192 13.8534C53.8265 13.8534 52.7438 13.8534 51.9634 13.8247C51.183 13.796 50.4577 13.7777 49.7798 13.7438C49.6317 14.2368 49.5262 14.7415 49.4644 15.2523C49.3982 15.8075 49.3657 16.3662 49.3672 16.9253C49.3672 20.0415 50.1144 22.5018 51.6087 24.3062C53.103 26.1105 55.1123 27.0127 57.6367 27.0127C58.957 27.0232 60.264 26.7498 61.4679 26.2114C62.7392 25.6128 63.8891 24.7875 64.8603 23.7763M50.1109 12.1308H50.6049C50.6758 12.1308 51.1304 12.1491 51.9634 12.1856C52.7964 12.2222 53.6084 12.2405 54.3967 12.2405H55.1088C57.5999 12.2405 59.1345 12.1091 59.7126 11.8464C60.2907 11.5836 60.578 11.0799 60.5745 10.3352C60.577 9.78566 60.4591 9.24216 60.2291 8.74236C59.999 8.24257 59.6623 7.79845 59.2422 7.44079C58.3497 6.63333 57.1776 6.19948 55.9707 6.22979C55.2396 6.22114 54.5146 6.36275 53.8413 6.64571C53.168 6.92867 52.5608 7.34687 52.058 7.87404C50.9408 9.03087 50.2571 10.5335 50.1214 12.1308" fill="#E0E0E0"/>
<path d="M85.4011 30.1576H85.1384C85.0748 30.1661 85.0103 30.1513 84.9571 30.1159C84.9308 30.0898 84.9203 30.0141 84.9203 29.8862V29.6696L84.7521 25.5902C83.9789 27.0586 82.8467 28.3105 81.4596 29.2311C80.2586 30.0103 78.8687 30.4544 77.4355 30.5169C76.0024 30.5793 74.5787 30.2578 73.3136 29.586C72.2152 28.9844 71.3174 28.0773 70.7306 26.9761C70.286 26.0397 69.9951 25.0388 69.8687 24.0112C69.6935 22.8524 69.6059 20.9498 69.6059 18.3033V17.2437C69.6059 14.1257 69.633 11.0616 69.6874 8.05152C69.7057 7.52953 69.7163 7.21112 69.7163 7.1015C69.746 6.62503 69.6557 6.1487 69.4535 5.71563C69.2446 5.3739 68.9317 5.107 68.5601 4.95353L72.2389 4.38196C72.3134 4.38156 72.3875 4.37192 72.4596 4.35325C72.5041 4.33999 72.5499 4.33124 72.5962 4.32715C73.1218 4.32715 73.4345 4.44199 73.5711 4.66905C73.7078 4.89611 73.7787 5.43115 73.7787 6.2846L73.6394 19.2011V19.5248C73.6394 22.246 74.052 24.1904 74.8771 25.358C75.7022 26.5255 77.0388 27.111 78.887 27.1144C80.9542 27.1144 82.4187 26.4028 83.2806 24.9795C84.1425 23.5562 84.5734 20.9228 84.5734 17.0793V10.6092C84.5734 8.75968 84.4858 7.41382 84.3106 6.57169C84.1372 5.72868 83.8508 5.18842 83.4461 4.95353L88.9407 4.32715C88.8478 5.74173 88.7699 7.81314 88.7068 10.5414C88.6438 13.2696 88.6113 16.2467 88.6096 19.4726V22.6045C88.6096 25.1257 88.6972 26.8656 88.8724 27.8243C89.0475 28.7831 89.3673 29.4538 89.8315 29.8366L85.4011 30.1576Z" fill="#E0E0E0"/>
<path d="M116.692 4.95898L99.1415 28.0438H106.063C109.672 28.0438 112.217 27.7828 113.699 27.2608C115.153 26.7676 116.412 25.8303 117.296 24.583L116.584 29.8316H93.1792L110.73 6.78593H105.372C102.297 6.78593 100.064 7.0391 98.6711 7.54542C97.336 8.00799 96.2075 8.92277 95.4837 10.1293L96.5584 4.95898H116.692Z" fill="#E0E0E0"/>
<path d="M116.282 42.9829L116.387 42.688C116.131 42.6141 115.866 42.5729 115.599 42.5653C114.968 42.5653 114.637 42.7454 114.637 43.3117C114.637 43.7633 114.96 43.912 115.546 43.9538C116.011 43.9929 116.143 44.1156 116.143 44.374C116.143 44.755 115.94 44.8203 115.546 44.8203C115.277 44.819 115.011 44.7722 114.758 44.682L114.663 44.9717C114.948 45.0547 115.242 45.0986 115.538 45.1022C116.182 45.1022 116.476 44.9168 116.476 44.3453C116.476 43.8964 116.214 43.698 115.578 43.6536C115.139 43.6249 114.971 43.5205 114.971 43.283C114.971 42.9072 115.178 42.8498 115.591 42.8498C115.827 42.854 116.061 42.899 116.282 42.9829ZM112.149 42.855C112.595 42.855 112.756 42.9829 112.785 43.5832H111.415C111.447 43.0168 111.639 42.855 112.149 42.855ZM112.149 42.5653C111.429 42.5653 111.058 42.8785 111.058 43.8207C111.058 44.8072 111.458 45.1022 112.191 45.1022C112.458 45.0902 112.723 45.0455 112.979 44.969L112.908 44.682C112.682 44.758 112.447 44.8011 112.209 44.8098C111.647 44.8098 111.397 44.6454 111.392 43.865H113.129C113.139 42.8393 112.837 42.5653 112.149 42.5653ZM108.449 44.8072C107.881 44.8072 107.695 44.648 107.695 43.8363C107.695 43.0246 107.881 42.8602 108.449 42.8602C108.809 42.8602 109.119 42.9777 109.119 43.1969V44.7054C108.903 44.7758 108.676 44.8102 108.449 44.8072ZM108.449 42.5653C107.695 42.5653 107.348 42.8602 107.348 43.8389C107.348 44.8177 107.7 45.1022 108.449 45.1022C108.785 45.0984 109.118 45.0339 109.432 44.9116V41.597H109.119V42.7584C108.924 42.6202 108.688 42.552 108.449 42.5653ZM104.678 42.8498C105.251 42.8498 105.437 43.0116 105.437 43.8311C105.437 44.6506 105.251 44.8151 104.678 44.8151C104.105 44.8151 103.924 44.6115 103.924 43.8311C103.924 43.0507 104.11 42.8498 104.678 42.8498ZM104.678 45.1022C105.437 45.1022 105.784 44.8072 105.784 43.8207C105.784 42.8341 105.432 42.5653 104.678 42.5653C103.924 42.5653 103.577 42.8263 103.577 43.8207C103.577 44.8151 103.924 45.1022 104.678 45.1022ZM102.142 44.682C101.956 44.7627 101.755 44.8053 101.551 44.8072C100.983 44.8072 100.723 44.6115 100.723 43.8311C100.723 43.0507 100.986 42.8602 101.551 42.8602C101.754 42.8555 101.955 42.8938 102.142 42.9724L102.242 42.6827C102.019 42.6097 101.786 42.5701 101.551 42.5653C100.799 42.5653 100.376 42.8263 100.376 43.8207C100.376 44.8151 100.794 45.1022 101.551 45.1022C101.788 45.0993 102.022 45.0543 102.242 44.969L102.142 44.682ZM95.9513 41.7171V45.0343H96.2982V41.7171H95.9513ZM91.6918 42.9829L91.7995 42.688C91.543 42.6142 91.2781 42.573 91.0112 42.5653C90.3805 42.5653 90.0494 42.7454 90.0494 43.3117C90.0494 43.7633 90.37 43.912 90.9586 43.9538C91.4237 43.9929 91.5551 44.1156 91.5551 44.374C91.5551 44.755 91.3528 44.8203 90.9586 44.8203C90.6899 44.819 90.4233 44.7722 90.1703 44.682L90.0757 44.9717C90.36 45.0547 90.6544 45.0986 90.9507 45.1022C91.5945 45.1022 91.8862 44.9168 91.8862 44.3453C91.8862 43.8964 91.6234 43.698 90.9875 43.6536C90.5513 43.6249 90.3832 43.5205 90.3832 43.283C90.3832 42.9072 90.5881 42.8498 91.0033 42.8498C91.2388 42.8542 91.4718 42.8993 91.6918 42.9829ZM87.4454 44.8098C86.8778 44.8098 86.6912 44.6506 86.6912 43.8389C86.6912 43.0273 86.8778 42.8628 87.4454 42.8628C87.8054 42.8628 88.1128 42.9803 88.1128 43.1995V44.7081C87.8974 44.7778 87.6719 44.8113 87.4454 44.8072V44.8098ZM87.4454 42.5679C86.6912 42.5679 86.3443 42.8628 86.3443 43.8416C86.3443 44.8203 86.6938 45.1048 87.4454 45.1048C87.7811 45.1013 88.1133 45.0367 88.4255 44.9142V41.5996H88.1128V42.761C87.92 42.6207 87.684 42.5514 87.4454 42.5653V42.5679ZM84.794 42.5679C84.6698 42.5586 84.545 42.5749 84.4274 42.6158C84.3098 42.6566 84.202 42.7212 84.1108 42.8054V42.6332H83.7981V45.0369H84.1108V43.21C84.1108 42.9907 84.4314 42.8915 84.794 42.8915C84.8775 42.8931 84.9608 42.8993 85.0436 42.9098V42.5914C84.9611 42.5772 84.8777 42.5685 84.794 42.5653V42.5679ZM81.0652 42.8524C81.6381 42.8524 81.8247 43.0142 81.8247 43.8337C81.8247 44.6532 81.6381 44.8177 81.0652 44.8177C80.4924 44.8177 80.3111 44.6141 80.3111 43.8337C80.3111 43.0534 80.4977 42.8498 81.0652 42.8498V42.8524ZM81.0652 45.1048C81.8247 45.1048 82.1715 44.8098 82.1715 43.8233C82.1715 42.8367 81.8194 42.5679 81.0652 42.5679C80.3111 42.5679 79.9642 42.8289 79.9642 43.8233C79.9642 44.8177 80.3111 45.1022 81.0652 45.1022V45.1048ZM78.5689 42.6305H78.2273C78.0463 43.3476 77.818 44.052 77.5441 44.7394C77.3996 44.1078 77.1657 43.1917 76.9686 42.6305H76.5692C76.3952 43.3437 76.1847 44.0475 75.9386 44.7394C75.7608 44.0247 75.5423 43.3206 75.2843 42.6305H74.9137C75.2211 43.4167 75.4843 44.2192 75.7021 45.0343H76.1461C76.3616 44.4392 76.606 43.6458 76.7715 42.9881C76.924 43.4344 77.1683 44.374 77.2971 45.0343H77.7385C78.0693 44.2524 78.3467 43.4494 78.5689 42.6305ZM70.6857 41.7171V45.0343H71.0326V41.7171H70.6857ZM66.4262 42.9829L66.5313 42.688C66.2749 42.6139 66.0099 42.5726 65.743 42.5653C65.115 42.5653 64.7812 42.7454 64.7812 43.3117C64.7812 43.7633 65.1044 43.912 65.6904 43.9538C66.1582 43.9929 66.2869 44.1156 66.2869 44.374C66.2869 44.755 66.0846 44.8203 65.6904 44.8203C65.4216 44.8196 65.1549 44.7728 64.9021 44.682L64.8049 44.9717C65.0893 45.0543 65.3836 45.0982 65.6799 45.1022C66.3237 45.1022 66.618 44.9168 66.618 44.3453C66.618 43.8964 66.3552 43.698 65.7193 43.6536C65.2805 43.6249 65.1123 43.5205 65.1123 43.283C65.1123 42.9072 65.3199 42.8498 65.7325 42.8498C65.9653 42.8552 66.1955 42.9002 66.4131 42.9829H66.4262ZM61.5386 42.9411C61.7364 42.883 61.9421 42.8557 62.1483 42.8602C62.6975 42.8602 62.8525 43.0064 62.8525 43.7398V45.0447H63.1626V43.6876C63.1626 42.8132 62.8998 42.5757 62.2061 42.5757C61.8703 42.5784 61.5379 42.643 61.2259 42.7663V45.0447H61.5386V42.9411ZM58.5562 42.8602C58.7826 42.8564 59.0082 42.8899 59.2236 42.9594V44.4627C59.2236 44.6872 58.9162 44.8072 58.5562 44.8072C57.9886 44.8072 57.802 44.6115 57.802 43.8311C57.802 43.0507 57.9754 42.8602 58.543 42.8602H58.5562ZM59.5363 42.7558C59.2243 42.6326 58.8919 42.568 58.5562 42.5653C57.8046 42.5653 57.4551 42.8263 57.4551 43.8207C57.4551 44.8151 57.802 45.1022 58.5562 45.1022C58.7956 45.1159 59.0321 45.0446 59.2236 44.9012C59.2236 45.5432 58.903 45.705 58.3354 45.705C58.0979 45.6992 57.8631 45.6524 57.6417 45.5667L57.5497 45.8642C57.8042 45.9482 58.0699 45.994 58.3381 46C59.0922 46 59.5389 45.739 59.5389 44.8594L59.5363 42.7558ZM55.6762 41.7119C55.5238 41.7119 55.4765 41.7353 55.4765 41.8972C55.4765 42.059 55.5238 42.1033 55.6762 42.1033C55.8286 42.1033 55.8733 42.0746 55.8733 41.8972C55.8733 41.7197 55.8128 41.7171 55.663 41.7171L55.6762 41.7119ZM55.826 45.0291H55.5133V42.6253H55.826V45.0291ZM53.708 42.9777L53.8157 42.6827C53.5592 42.609 53.2944 42.5678 53.0274 42.5601C52.3968 42.5601 52.0657 42.7402 52.0657 43.3065C52.0657 43.758 52.3863 43.9068 52.9749 43.9486C53.44 43.9877 53.5714 44.1104 53.5714 44.3688C53.5714 44.7498 53.369 44.8151 52.9749 44.8151C52.7061 44.8142 52.4394 44.7674 52.1866 44.6767L52.092 44.9664C52.3763 45.0495 52.6707 45.0934 52.967 45.0969C53.6108 45.0969 53.9025 44.9116 53.9025 44.3401C53.9025 43.8911 53.6397 43.6928 53.0038 43.6484C52.5676 43.6197 52.3994 43.5153 52.3994 43.2778C52.3994 42.902 52.6044 42.8446 53.0195 42.8446C53.2509 42.8522 53.4793 42.8989 53.6949 42.9829L53.708 42.9777ZM49.5772 42.8498C50.0239 42.8498 50.1816 42.9777 50.2105 43.578H48.8231C48.8756 43.0168 49.0543 42.855 49.5641 42.855L49.5772 42.8498ZM49.5772 42.5601C48.8546 42.5601 48.4841 42.8733 48.4841 43.8155C48.4841 44.802 48.8835 45.0969 49.6193 45.0969C49.8866 45.085 50.1513 45.0402 50.4076 44.9638L50.3366 44.6767C50.1111 44.7528 49.8757 44.7959 49.6377 44.8046C49.0753 44.8046 48.8257 44.6402 48.8204 43.8598H50.5574C50.5547 42.8393 50.2499 42.5653 49.5641 42.5653L49.5772 42.5601ZM45.8774 44.802C45.3098 44.802 45.1232 44.6428 45.1232 43.8311C45.1232 43.0194 45.3098 42.855 45.8774 42.855C46.2374 42.855 46.5448 42.9725 46.5448 43.1917V44.7002C46.3257 44.7741 46.0956 44.8103 45.8642 44.8072L45.8774 44.802ZM45.8774 42.5601C45.1232 42.5601 44.7764 42.855 44.7764 43.8337C44.7764 44.8124 45.1259 45.0969 45.8774 45.0969C46.2131 45.0935 46.5453 45.0289 46.8575 44.9064V41.5918H46.5448V42.7532C46.3475 42.6127 46.1063 42.5461 45.8642 42.5653L45.8774 42.5601Z" fill="white"/>
<path d="M71.9813 35.0825L65.4829 40.5373H72.6697L71.9813 35.0851V35.0825Z" fill="#91CAB7"/>
<path d="M72.6699 40.5376H75.2293L71.9814 35.0854L72.6699 40.5376Z" fill="#68B6C0"/>
<path d="M73.2138 31.9849H70.1367L71.9814 35.0828L73.2138 31.9849Z" fill="#2E6BB2"/>
<path d="M75.6708 31.9849H73.2138L71.9814 35.0828L72.7487 34.4382L75.6708 31.9849Z" fill="#61A787"/>
<path d="M87.3877 31.9849L96.4166 40.5376H101.036L101.252 31.9849H87.3877Z" fill="#9CC38A"/>
<path d="M115.688 32.7544L106.16 40.5372H113.781C114.485 40.5442 115.164 40.2733 115.668 39.7841C116.172 39.2949 116.46 38.6271 116.469 37.9273V34.6101C116.469 34.2649 116.4 33.9231 116.266 33.6046C116.132 33.286 115.935 32.9971 115.688 32.7544Z" fill="#76C044"/>
<path d="M71.9811 35.0828L53.7368 33.2402L55.6761 40.5376H65.467L71.9811 35.0828Z" fill="#74C3B6"/>
<path d="M52.1944 33.0835L44.7632 36.8783V37.9223C44.7729 38.6224 45.0615 39.2901 45.5658 39.7793C46.0701 40.2685 46.7491 40.5392 47.454 40.5322H55.6761L53.7369 33.2244L52.1944 33.0835Z" fill="#6FA2B3"/>
<path d="M113.781 31.9849H101.254L101.036 40.5376H106.16L115.686 32.7548C115.177 32.2599 114.493 31.9834 113.781 31.9849Z" fill="#76C044"/>
<path d="M75.6731 31.9849L72.7484 34.4382L71.9811 35.0828L70.1364 31.9849H54.3464L52.1943 33.0836L53.7368 33.2402L71.9811 35.0828V35.0855L75.229 40.5376H96.4163L87.3874 31.9849H75.6731Z" fill="#118BBA"/>
<path d="M54.3465 31.9845H47.454C47.1037 31.9814 46.7563 32.0468 46.4315 32.1771C46.1067 32.3074 45.8109 32.4999 45.5611 32.7437C45.3112 32.9875 45.1121 33.2779 44.9752 33.5981C44.8383 33.9183 44.7663 34.2622 44.7632 34.6101V36.8781L52.1944 33.0833L54.3465 31.9845Z" fill="#03A0CA"/>
<path d="M112.254 33.9292C111.789 33.7979 111.309 33.7303 110.827 33.7282C109.536 33.7282 108.788 34.1406 108.788 35.2368C108.788 36.132 109.313 36.4608 110.446 36.5417C111.407 36.6252 111.633 36.9332 111.633 37.3586C111.633 37.9824 111.153 38.1573 110.32 38.1573C109.887 38.1559 109.457 38.0971 109.04 37.9824L108.864 38.5957C109.341 38.736 109.835 38.8072 110.333 38.8071C111.647 38.8071 112.388 38.4156 112.388 37.3247C112.388 36.4164 111.862 35.9962 110.714 35.8918C109.781 35.8135 109.55 35.5891 109.55 35.1637C109.55 34.5477 109.994 34.3807 110.819 34.3807C111.245 34.3759 111.669 34.4348 112.078 34.5556L112.254 33.9292ZM102.744 38.708V34.4512H104.426V33.843H100.316V34.4512H102.003V38.7158L102.744 38.708ZM93.0659 38.708V37.0089H94.7529C95.7357 37.0089 96.1088 36.2625 96.1088 35.4638C96.1088 34.5686 95.7909 33.8352 94.724 33.8352H92.3459V38.708H93.0659ZM93.0659 36.4008V34.4355H94.5979C95.0577 34.4355 95.2969 34.8009 95.2969 35.4586C95.2969 36.0458 95.0577 36.4008 94.569 36.4008H93.0659ZM84.0581 33.8352V38.708H87.503V38.1051H84.757V36.4347H86.7147V35.8344H84.757V34.4512H87.503V33.843L84.0581 33.8352ZM75.6283 36.2259C75.6283 38.2121 76.3641 38.8071 77.9092 38.8071C78.3794 38.8059 78.8475 38.7445 79.3019 38.6244L79.1258 37.9876C78.759 38.0953 78.3784 38.1498 77.9959 38.1494C76.8371 38.1494 76.4193 37.8702 76.4193 36.2337C76.4193 34.5973 76.8502 34.3676 77.9959 34.3676C78.3789 34.3663 78.7598 34.4226 79.1258 34.5347L79.3019 33.8979C78.8467 33.7822 78.379 33.7217 77.9092 33.7178C76.351 33.7178 75.6152 34.2345 75.6152 36.2259H75.6283ZM70.5989 33.8352H69.8762V37.6535C69.1641 36.3669 68.3811 35.0436 67.5822 33.8352H66.6284V38.708H67.3352V34.6887C68.1892 36.025 69.0012 37.3873 69.7212 38.708H70.5989V33.8352ZM59.2997 38.1703C58.1329 38.1703 57.7861 37.8336 57.7861 36.2546C57.7861 34.6182 58.1329 34.3468 59.2997 34.3468C60.4664 34.3468 60.8237 34.6078 60.8237 36.2546C60.8211 37.8441 60.469 38.1703 59.297 38.1703H59.2997ZM59.2997 33.7178C57.7519 33.7178 57.0109 34.2554 57.0109 36.2416C57.0109 38.2277 57.7519 38.8071 59.2997 38.8071C60.8474 38.8071 61.5858 38.246 61.5858 36.2416C61.5858 34.2371 60.8421 33.7178 59.297 33.7178H59.2997ZM48.8439 36.2259C48.8439 38.2121 49.5771 38.8071 51.1248 38.8071C51.5941 38.8057 52.0613 38.7443 52.5149 38.6244L52.3388 37.9876C51.972 38.0953 51.5914 38.1498 51.2089 38.1494C50.0501 38.1494 49.6191 37.8702 49.6191 36.2337C49.6191 34.5973 50.0501 34.3676 51.2089 34.3676C51.5919 34.3663 51.9728 34.4226 52.3388 34.5347L52.5149 33.8979C52.0606 33.782 51.5938 33.7216 51.1248 33.7178C49.5744 33.7178 48.8413 34.2345 48.8413 36.2259H48.8439Z" fill="#F3F4F4"/>
<path d="M121.842 2.33067H122C122.003 2.796 121.868 3.25193 121.61 3.64061C121.353 4.02928 120.985 4.33319 120.553 4.51378C120.121 4.69437 119.645 4.7435 119.185 4.65494C118.725 4.56638 118.302 4.34412 117.969 4.01636C117.637 3.68859 117.41 3.27009 117.317 2.81395C117.224 2.35781 117.27 1.88459 117.448 1.45431C117.627 1.02403 117.93 0.656093 118.319 0.397171C118.708 0.13825 119.166 1.40767e-05 119.635 1.07605e-09C120.259 -1.8747e-05 120.858 0.244948 121.301 0.681516C121.744 1.11808 121.995 1.71086 122 2.33067H121.685C121.686 1.92936 121.567 1.53677 121.343 1.2026C121.119 0.868424 120.801 0.607689 120.428 0.4534C120.055 0.299111 119.644 0.258206 119.248 0.335863C118.851 0.41352 118.487 0.606248 118.201 0.889648C117.915 1.17305 117.72 1.53438 117.641 1.9279C117.561 2.32142 117.602 2.72943 117.756 3.10029C117.91 3.47114 118.172 3.78817 118.508 4.01123C118.844 4.23429 119.239 4.35336 119.643 4.35336C120.183 4.35336 120.702 4.14043 121.085 3.76125C121.467 3.38207 121.683 2.8676 121.685 2.33067H121.842Z" fill="white"/>
<path d="M120.613 3.45277H120.224C119.885 2.82377 119.643 2.52885 119.493 2.52885H119.141V3.45277H118.831V1.18213H119.869C120.334 1.18213 120.468 1.48488 120.468 1.84244C120.479 1.9231 120.471 2.00508 120.445 2.08234C120.42 2.15959 120.377 2.23014 120.32 2.28877C120.263 2.3474 120.194 2.39261 120.117 2.42107C120.041 2.44952 119.958 2.46049 119.877 2.45316C120.037 2.50797 120.271 2.83421 120.613 3.45277ZM119.141 2.24698H119.824C120.029 2.24698 120.14 2.10604 120.14 1.86593C120.14 1.62582 120.021 1.46139 119.824 1.46139H119.146L119.141 2.24698Z" fill="white"/>
</g>
<defs>
<clipPath id="clip0_390_46">
<rect width="122" height="46" fill="white"/>
</clipPath>
</defs>
</svg>
