<svg width="18" height="18" viewBox="0 0 18 18" fill="none" xmlns="http://www.w3.org/2000/svg">
<g clip-path="url(#clip0_280_5125)">
<path d="M16.857 3.28564V7.57136H12.5713" stroke="#282A39" stroke-width="1.71429" stroke-linecap="round" stroke-linejoin="round"/>
<path d="M1.14258 14.7144V10.4287H5.42829" stroke="#282A39" stroke-width="1.71429" stroke-linecap="round" stroke-linejoin="round"/>
<path d="M2.93544 6.85702C3.2977 5.8333 3.91339 4.91802 4.72505 4.19661C5.53672 3.47519 6.51791 2.97114 7.57707 2.73149C8.63623 2.49184 9.73883 2.52441 10.782 2.82615C11.8252 3.12788 12.7749 3.68896 13.5426 4.45702L16.8569 7.57131M1.14258 10.4285L4.45686 13.5427C5.22454 14.3108 6.17427 14.8719 7.21744 15.1736C8.26061 15.4754 9.36322 15.5079 10.4224 15.2683C11.4815 15.0286 12.4627 14.5246 13.2744 13.8032C14.0861 13.0817 14.7017 12.1665 15.064 11.1427" stroke="#282A39" stroke-width="1.71429" stroke-linecap="round" stroke-linejoin="round"/>
</g>
<defs>
<clipPath id="clip0_280_5125">
<rect width="17.1429" height="17.1429" fill="white" transform="translate(0.428711 0.428467)"/>
</clipPath>
</defs>
</svg>
