<svg width="210" height="72" viewBox="0 0 210 72" fill="none" xmlns="http://www.w3.org/2000/svg">
<path d="M39.97 22.6178H27.9487V18.8482H39.97C44.1197 18.8482 47.4834 22.2236 47.4834 26.3874V38.4503H43.7267V26.3874C43.7267 24.3055 42.0448 22.6178 39.97 22.6178Z" fill="black"/>
<path d="M26.446 43.7278H38.4673V47.4974H26.446C22.2965 47.4974 18.9326 44.1221 18.9326 39.9581V27.8953H22.6893V39.9581C22.6893 42.0401 24.3712 43.7278 26.446 43.7278Z" fill="black"/>
<path fill-rule="evenodd" clip-rule="evenodd" d="M40.721 33.1728C40.721 37.3366 37.3573 40.712 33.2078 40.712C29.0582 40.712 25.6943 37.3366 25.6943 33.1728C25.6943 29.009 29.0582 25.6335 33.2078 25.6335C37.3573 25.6335 40.721 29.009 40.721 33.1728ZM36.9645 33.1728C36.9645 35.2547 35.2825 36.9424 33.2078 36.9424C31.133 36.9424 29.451 35.2547 29.451 33.1728C29.451 31.0909 31.133 29.4031 33.2078 29.4031C35.2825 29.4031 36.9645 31.0909 36.9645 33.1728Z" fill="black"/>
<path d="M63.5152 45.0965C62.0925 45.0965 60.8118 44.8518 59.6732 44.3622C58.5349 43.8521 57.6404 43.1385 56.9901 42.2206C56.3395 41.3027 56.0142 40.2318 56.0142 39.0078H59.7344C59.8156 39.9257 60.1713 40.6804 60.8017 41.2718C61.452 41.8637 62.3566 42.1592 63.5152 42.1592C64.7147 42.1592 65.6497 41.8738 66.3207 41.3027C66.9913 40.7109 67.3267 39.9562 67.3267 39.0383C67.3267 38.3243 67.1134 37.7431 66.6866 37.2944C66.2797 36.8457 65.7617 36.4989 65.1313 36.2541C64.5216 36.0093 63.6677 35.7442 62.57 35.4586C61.1879 35.0915 60.0598 34.7243 59.1856 34.3571C58.3317 33.9696 57.5999 33.378 56.9901 32.5825C56.3801 31.787 56.0754 30.7263 56.0754 29.4005C56.0754 28.1766 56.3801 27.1057 56.9901 26.1878C57.5999 25.2699 58.4538 24.5662 59.5515 24.0766C60.6492 23.5871 61.9197 23.3423 63.363 23.3423C65.4161 23.3423 67.0931 23.8624 68.394 24.9028C69.7153 25.9226 70.4471 27.3301 70.5894 29.1251H66.7475C66.6866 28.35 66.3207 27.687 65.6497 27.1363C64.9788 26.5856 64.0948 26.3102 62.9971 26.3102C62.0008 26.3102 61.1879 26.5652 60.5575 27.0751C59.9275 27.5851 59.6123 28.3194 59.6123 29.2781C59.6123 29.9308 59.8054 30.4713 60.1916 30.8997C60.5981 31.3077 61.1064 31.634 61.7165 31.8788C62.3262 32.1236 63.1594 32.3888 64.2166 32.6743C65.6193 33.0619 66.7576 33.4494 67.6318 33.837C68.5263 34.2245 69.2783 34.8263 69.8881 35.6422C70.5184 36.4377 70.8332 37.5086 70.8332 38.8547C70.8332 39.9359 70.5387 40.9559 69.9493 41.9145C69.3798 42.8732 68.5364 43.6482 67.4184 44.24C66.3207 44.8111 65.0197 45.0965 63.5152 45.0965Z" fill="black"/>
<path d="M81.8868 27.7482C83.2084 27.7482 84.3873 28.0236 85.4241 28.5743C86.4809 29.1251 87.3043 29.941 87.8938 31.0221C88.4832 32.1032 88.7781 33.4086 88.7781 34.9385V44.8824H85.3324V35.4586C85.3324 33.9492 84.9564 32.7967 84.2043 32.0012C83.4522 31.1853 82.4255 30.7773 81.1246 30.7773C79.8236 30.7773 78.7868 31.1853 78.0144 32.0012C77.2623 32.7967 76.8862 33.9492 76.8862 35.4586V44.8824H73.4102V28.0236H76.8862V29.9512C77.4554 29.2577 78.177 28.7171 79.0512 28.3296C79.9457 27.942 80.8909 27.7482 81.8868 27.7482Z" fill="black"/>
<path d="M90.5288 36.3765C90.5288 34.6835 90.8744 33.1843 91.5657 31.8788C92.2772 30.5733 93.2325 29.5636 94.4317 28.8497C95.6515 28.1154 96.993 27.7482 98.4566 27.7482C99.7782 27.7482 100.927 28.0134 101.902 28.5438C102.899 29.0537 103.691 29.6962 104.281 30.4713V28.0236H107.787V44.8824H104.281V42.3733C103.691 43.1691 102.888 43.8318 101.872 44.3622C100.855 44.8926 99.6967 45.1579 98.3957 45.1579C96.9524 45.1579 95.6312 44.7908 94.4317 44.0565C93.2325 43.3014 92.2772 42.2614 91.5657 40.9356C90.8744 39.5891 90.5288 38.0695 90.5288 36.3765ZM104.281 36.4377C104.281 35.2751 104.037 34.2654 103.549 33.4086C103.081 32.5519 102.461 31.8992 101.689 31.4505C100.916 31.0017 100.083 30.7773 99.1884 30.7773C98.2939 30.7773 97.4607 31.0017 96.6883 31.4505C95.9156 31.8788 95.2855 32.5213 94.7976 33.378C94.3302 34.2144 94.0966 35.2138 94.0966 36.3765C94.0966 37.5392 94.3302 38.5592 94.7976 39.436C95.2855 40.3132 95.9156 40.9865 96.6883 41.4554C97.481 41.9044 98.3146 42.1287 99.1884 42.1287C100.083 42.1287 100.916 41.9044 101.689 41.4554C102.461 41.0068 103.081 40.3539 103.549 39.4975C104.037 38.6203 104.281 37.6004 104.281 36.4377Z" fill="black"/>
<path d="M114.304 30.5019C114.894 29.7268 115.697 29.0741 116.713 28.5438C117.73 28.0134 118.878 27.7482 120.159 27.7482C121.622 27.7482 122.954 28.1154 124.153 28.8497C125.373 29.5636 126.328 30.5733 127.02 31.8788C127.71 33.1843 128.056 34.6835 128.056 36.3765C128.056 38.0695 127.71 39.5891 127.02 40.9356C126.328 42.2614 125.373 43.3014 124.153 44.0565C122.954 44.7908 121.622 45.1579 120.159 45.1579C118.878 45.1579 117.74 44.9027 116.744 44.3927C115.748 43.8627 114.935 43.2098 114.304 42.4348V52.8989H110.828V28.0236H114.304V30.5019ZM124.519 36.3765C124.519 35.2138 124.275 34.2144 123.787 33.378C123.32 32.5213 122.69 31.8788 121.897 31.4505C121.124 31.0017 120.291 30.7773 119.396 30.7773C118.522 30.7773 117.689 31.0017 116.896 31.4505C116.124 31.8992 115.494 32.5519 115.006 33.4086C114.538 34.2654 114.304 35.2751 114.304 36.4377C114.304 37.6004 114.538 38.6203 115.006 39.4975C115.494 40.3539 116.124 41.0068 116.896 41.4554C117.689 41.9044 118.522 42.1287 119.396 42.1287C120.291 42.1287 121.124 41.9044 121.897 41.4554C122.69 40.9865 123.32 40.3132 123.787 39.436C124.275 38.5592 124.519 37.5392 124.519 36.3765Z" fill="black"/>
<path d="M136.952 45.0965C135.529 45.0965 134.248 44.8518 133.11 44.3622C131.971 43.8521 131.077 43.1385 130.427 42.2206C129.776 41.3027 129.451 40.2318 129.451 39.0078H133.171C133.252 39.9257 133.608 40.6804 134.238 41.2718C134.889 41.8637 135.793 42.1592 136.952 42.1592C138.151 42.1592 139.086 41.8738 139.757 41.3027C140.428 40.7109 140.763 39.9562 140.763 39.0383C140.763 38.3243 140.55 37.7431 140.123 37.2944C139.716 36.8457 139.198 36.4989 138.568 36.2541C137.958 36.0093 137.104 35.7442 136.007 35.4586C134.624 35.0915 133.496 34.7243 132.622 34.3571C131.768 33.9696 131.036 33.378 130.427 32.5825C129.817 31.787 129.512 30.7263 129.512 29.4005C129.512 28.1766 129.817 27.1057 130.427 26.1878C131.036 25.2699 131.89 24.5662 132.988 24.0766C134.086 23.5871 135.356 23.3423 136.799 23.3423C138.853 23.3423 140.53 23.8624 141.831 24.9028C143.152 25.9226 143.884 27.3301 144.026 29.1251H140.184C140.123 28.35 139.757 27.687 139.086 27.1363C138.415 26.5856 137.531 26.3102 136.433 26.3102C135.437 26.3102 134.624 26.5652 133.994 27.0751C133.364 27.5851 133.049 28.3194 133.049 29.2781C133.049 29.9308 133.242 30.4713 133.628 30.8997C134.035 31.3077 134.543 31.634 135.153 31.8788C135.763 32.1236 136.596 32.3888 137.653 32.6743C139.056 33.0619 140.194 33.4494 141.068 33.837C141.963 34.2245 142.715 34.8263 143.325 35.6422C143.955 36.4377 144.27 37.5086 144.27 38.8547C144.27 39.9359 143.975 40.9559 143.385 41.9145C142.816 42.8732 141.973 43.6482 140.855 44.24C139.757 44.8111 138.456 45.0965 136.952 45.0965Z" fill="black"/>
<path d="M155.537 27.7482C156.817 27.7482 157.956 28.0236 158.952 28.5744C159.968 29.1251 160.761 29.941 161.33 31.0221C161.92 32.1032 162.215 33.4086 162.215 34.9385V44.8824H158.769V35.4587C158.769 33.9492 158.393 32.7967 157.641 32.0012C156.889 31.1853 155.862 30.7773 154.561 30.7773C153.26 30.7773 152.223 31.1853 151.451 32.0012C150.699 32.7967 150.323 33.9492 150.323 35.4587V44.8824H146.847V22.2408H150.323V29.9818C150.912 29.2679 151.654 28.7172 152.549 28.3296C153.463 27.942 154.46 27.7482 155.537 27.7482Z" fill="black"/>
<path d="M172.411 45.1579C170.826 45.1579 169.393 44.801 168.112 44.087C166.832 43.3527 165.825 42.3326 165.093 41.0272C164.362 39.7014 163.996 38.1717 163.996 36.4377C163.996 34.7243 164.372 33.2047 165.124 31.8788C165.876 30.5529 166.903 29.533 168.204 28.8191C169.504 28.1052 170.958 27.7482 172.564 27.7482C174.17 27.7482 175.623 28.1052 176.924 28.8191C178.225 29.533 179.252 30.5529 180.004 31.8788C180.756 33.2047 181.132 34.7243 181.132 36.4377C181.132 38.1509 180.746 39.6709 179.973 40.9966C179.201 42.3224 178.144 43.3527 176.802 44.087C175.481 44.801 174.017 45.1579 172.411 45.1579ZM172.411 42.1287C173.306 42.1287 174.139 41.9145 174.912 41.4863C175.705 41.0577 176.345 40.4154 176.833 39.5585C177.321 38.7017 177.564 37.6616 177.564 36.4377C177.564 35.2138 177.331 34.1837 176.863 33.3475C176.396 32.4907 175.776 31.8482 175.003 31.4199C174.231 30.9915 173.397 30.7773 172.503 30.7773C171.609 30.7773 170.775 30.9915 170.003 31.4199C169.25 31.8482 168.651 32.4907 168.204 33.3475C167.756 34.1837 167.533 35.2138 167.533 36.4377C167.533 38.2531 167.99 39.6607 168.905 40.66C169.84 41.639 171.009 42.1287 172.411 42.1287Z" fill="black"/>
<path d="M187.099 30.8691V40.2013C187.099 40.8334 187.241 41.2926 187.526 41.5779C187.831 41.8433 188.339 41.9756 189.051 41.9756H191.185V44.8824H188.441C186.875 44.8824 185.676 44.5152 184.843 43.7809C184.009 43.0466 183.593 41.8535 183.593 40.2013V30.8691H181.611V28.0236H183.593V23.8318H187.099V28.0236H191.185V30.8691H187.099Z" fill="black"/>
</svg>
